<svg xmlns="http://www.w3.org/2000/svg" viewBox="0 0 1280 400" width="1280" height="400" role="img" aria-label="Redline — statistical auditor for single-cell RNA-seq" fill="none">
  <defs>
    <linearGradient id="bg" x1="0" y1="0" x2="0" y2="1">
      <stop offset="0" stop-color="#F8FAFD"/>
      <stop offset="1" stop-color="#EDF1F7"/>
    </linearGradient>
    <radialGradient id="glowB" cx="0.84" cy="-0.1" r="0.75">
      <stop offset="0" stop-color="#2563EB" stop-opacity="0.11"/>
      <stop offset="1" stop-color="#2563EB" stop-opacity="0"/>
    </radialGradient>
    <radialGradient id="glowR" cx="0.08" cy="1.1" r="0.75">
      <stop offset="0" stop-color="#E5484D" stop-opacity="0.10"/>
      <stop offset="1" stop-color="#E5484D" stop-opacity="0"/>
    </radialGradient>
  </defs>
  <rect x="1" y="1" width="1278" height="398" rx="24" fill="url(#bg)" stroke="#E3E9F1" stroke-width="1.5"/>
  <rect x="1" y="1" width="1278" height="398" rx="24" fill="url(#glowB)"/>
  <rect x="1" y="1" width="1278" height="398" rx="24" fill="url(#glowR)"/>
  <path d="M259.17 232L219.83 232L219.83 109.54L296.55 109.54Q310.25 109.54 319.42 115.05Q328.59 120.57 333.22 129.47Q337.85 138.37 337.85 148.70Q337.85 160.44 332.33 169.61Q326.81 178.78 317.38 184.30L341.40 232L297.26 232L278.57 190.88L259.17 190.88L259.17 232M259.17 137.48L259.17 163.65L286.76 163.65Q291.39 163.65 294.59 160Q297.79 156.35 297.79 150.30Q297.79 146.56 296.37 143.71Q294.95 140.86 292.45 139.17Q289.96 137.48 286.76 137.48 M466 232L358.85 232L358.85 109.54L464.76 109.54L464.76 138.91L398.19 138.91L398.19 155.82L455.15 155.82L455.15 183.94L398.19 183.94L398.19 202.63L466 202.63 M539.88 232L486.83 232L486.83 109.54L539.88 109.54Q560.88 109.54 575.12 116.12Q589.36 122.71 596.75 136.24Q604.13 149.76 604.13 170.77Q604.13 191.59 596.75 205.21Q589.36 218.83 575.12 225.41Q560.88 232 539.88 232M526.17 138.91L526.17 202.63L539.16 202.63Q545.57 202.63 550.29 200.85Q555 199.07 558.03 195.69Q561.06 192.31 562.48 187.32Q563.90 182.34 563.90 176.11L563.90 165.43Q563.90 159.20 562.48 154.21Q561.06 149.23 558.03 145.85Q555 142.47 550.29 140.69Q545.57 138.91 539.16 138.91 M727.49 232L625.32 232L625.32 109.54L664.65 109.54L664.65 200.67L727.49 200.67 M783.38 232L744.04 232L744.04 109.54L783.38 109.54 M845.50 232L809.72 232L809.72 109.54L843.19 109.54L881.28 153.50Q882.88 155.28 885.55 158.66Q888.22 162.05 890.98 165.52Q893.74 168.99 895.16 171.12L896.05 170.77Q895.88 165.78 895.88 160.89Q895.88 155.99 895.88 153.50L895.88 109.54L931.65 109.54L931.65 232L898.37 232L855.47 183.05Q852.44 179.49 850.31 176.55Q848.17 173.62 846.21 170.95L845.32 171.30Q845.50 174.68 845.50 178.07Q845.50 181.45 845.50 183.05 M1065.69 232L958.53 232L958.53 109.54L1064.44 109.54L1064.44 138.91L997.87 138.91L997.87 155.82L1054.83 155.82L1054.83 183.94L997.87 183.94L997.87 202.63L1065.69 202.63 " fill="#0F1729"/>
  <line x1="194.659" y1="164.4" x2="1085.341" y2="164.4" stroke="#E5484D" stroke-opacity="0.16" stroke-width="26" stroke-linecap="round"/>
  <line x1="194.659" y1="164.4" x2="1085.341" y2="164.4" stroke="#E5484D" stroke-width="14" stroke-linecap="round"/>
  <text x="640" y="326" text-anchor="middle" font-family="ui-monospace, 'JetBrains Mono', SFMono-Regular, Menlo, Consolas, monospace" font-size="22" font-weight="600" letter-spacing="7" fill="#697488">STATISTICAL AUDITOR</text>
</svg>
